<svg width="68" height="29" fill="none" xmlns="http://www.w3.org/2000/svg"><path d="M17.893 17.254h4.497v11.411h-5.64V22H.314V.584H6.13v16.67h5.947V.584h5.816v16.67zM42.795 22h-5.83V5.315H31.06V22h-5.815V.584h17.549V22zm24.668-10.737c0 3.603-.884 6.342-2.651 8.217-1.768 1.875-4.356 2.813-7.764 2.813-3.36 0-5.938-.942-7.735-2.827-1.787-1.885-2.68-4.63-2.68-8.233 0-3.564.889-6.284 2.666-8.159C51.086 1.19 53.679.247 57.077.247c3.408 0 5.991.933 7.75 2.798 1.757 1.865 2.636 4.604 2.636 8.218zm-14.736 0c0 4.14 1.44 6.21 4.32 6.21 1.466 0 2.55-.502 3.253-1.508.713-1.006 1.07-2.573 1.07-4.702 0-2.139-.362-3.716-1.085-4.732-.713-1.025-1.782-1.538-3.208-1.538-2.9 0-4.35 2.09-4.35 6.27z" fill="#EB0E0E"/></svg>